<svg width="532" height="481" fill="none" xmlns="http://www.w3.org/2000/svg"><g opacity=".5" filter="url(#filter0_d)"><path fill-rule="evenodd" clip-rule="evenodd" d="M28 225.284L5 202v270h23V225.284zM33 472h242L171.058 369.564C162.982 377.269 152.043 382 140 382c-24.853 0-45-20.147-45-45 0-12.104 4.78-23.093 12.553-31.181L33 230.346V472z" fill="#F0D5A4"/></g><g opacity=".5" filter="url(#filter1_d)"><path fill-rule="evenodd" clip-rule="evenodd" d="M29.491 221.02L6.226 198l269.999.226-.019 23.001-246.715-.207zm246.711 5.207L276 468.226 173.65 364.198c7.712-8.07 12.452-19.005 12.463-31.048.02-24.853-20.11-45.017-44.963-45.038-12.104-.01-23.097 4.76-31.191 12.528l-75.41-74.616 241.653.203z" fill="#F0D5A4"/></g><g opacity=".5" filter="url(#filter2_d)"><path fill-rule="evenodd" clip-rule="evenodd" d="M416.446 272.135L374 297l2.527 4.314 44.879-26.289 17.819 10.382L387 316l2.527 4.314 54.657-32.018 83.052 48.391-211.301 120.879V213.572l100.511 58.563zm-105.511-61.477l-19.634-11.439-1.083 273.059 20.717-11.851V210.658z" fill="#F0510A"/></g><g opacity=".5" filter="url(#filter3_d)"><path fill-rule="evenodd" clip-rule="evenodd" d="M71.274 90.253C67.854 80.17 66 69.363 66 58.123 66 36.446 72.897 16.38 84.616 0 38.665 9.026 4 49.526 4 98.123c0 9.019 1.194 17.76 3.433 26.073l63.84-33.943zm-54.58 56.666C33.805 177.472 66.49 198.123 104 198.123c33.552 0 63.244-16.524 81.384-41.878A100.478 100.478 0 01166 158.123c-35.284 0-66.3-18.274-84.1-45.873l-65.207 34.669z" fill="#FF2F2F"/></g><defs><filter id="filter0_d" x="1" y="202" width="278" height="278" filterUnits="userSpaceOnUse" color-interpolation-filters="sRGB"><feFlood flood-opacity="0" result="BackgroundImageFix"/><feColorMatrix in="SourceAlpha" values="0 0 0 0 0 0 0 0 0 0 0 0 0 0 0 0 0 0 127 0"/><feOffset dy="4"/><feGaussianBlur stdDeviation="2"/><feColorMatrix values="0 0 0 0 0 0 0 0 0 0 0 0 0 0 0 0 0 0 0.25 0"/><feBlend in2="BackgroundImageFix" result="effect1_dropShadow"/><feBlend in="SourceGraphic" in2="effect1_dropShadow" result="shape"/></filter><filter id="filter1_d" x="2" y="198" width="278.226" height="278.226" filterUnits="userSpaceOnUse" color-interpolation-filters="sRGB"><feFlood flood-opacity="0" result="BackgroundImageFix"/><feColorMatrix in="SourceAlpha" values="0 0 0 0 0 0 0 0 0 0 0 0 0 0 0 0 0 0 127 0"/><feOffset dy="4"/><feGaussianBlur stdDeviation="2"/><feColorMatrix values="0 0 0 0 0 0 0 0 0 0 0 0 0 0 0 0 0 0 0.25 0"/><feBlend in2="BackgroundImageFix" result="effect1_dropShadow"/><feBlend in="SourceGraphic" in2="effect1_dropShadow" result="shape"/></filter><filter id="filter2_d" x="286.218" y="199.219" width="245.018" height="281.059" filterUnits="userSpaceOnUse" color-interpolation-filters="sRGB"><feFlood flood-opacity="0" result="BackgroundImageFix"/><feColorMatrix in="SourceAlpha" values="0 0 0 0 0 0 0 0 0 0 0 0 0 0 0 0 0 0 127 0"/><feOffset dy="4"/><feGaussianBlur stdDeviation="2"/><feColorMatrix values="0 0 0 0 0 0 0 0 0 0 0 0 0 0 0 0 0 0 0.25 0"/><feBlend in2="BackgroundImageFix" result="effect1_dropShadow"/><feBlend in="SourceGraphic" in2="effect1_dropShadow" result="shape"/></filter><filter id="filter3_d" x="0" y="0" width="189.384" height="206.123" filterUnits="userSpaceOnUse" color-interpolation-filters="sRGB"><feFlood flood-opacity="0" result="BackgroundImageFix"/><feColorMatrix in="SourceAlpha" values="0 0 0 0 0 0 0 0 0 0 0 0 0 0 0 0 0 0 127 0"/><feOffset dy="4"/><feGaussianBlur stdDeviation="2"/><feColorMatrix values="0 0 0 0 0 0 0 0 0 0 0 0 0 0 0 0 0 0 0.25 0"/><feBlend in2="BackgroundImageFix" result="effect1_dropShadow"/><feBlend in="SourceGraphic" in2="effect1_dropShadow" result="shape"/></filter></defs></svg>