<svg width="713" height="1065" fill="none" xmlns="http://www.w3.org/2000/svg"><path d="M-137.056 417.738C92.317 433.49-246.016 521.344 333.5 83.791s322 980.999 322 980.999h-792.556s-229.373-662.804 0-647.052z" fill="url(#paint0_linear)"/><g clip-path="url(#clip0)"><path d="M699 1042.33c-14.42 19.31-44.352 21.35-44.352 21.35s-6.554-29.28 7.866-48.59c14.42-19.313 44.352-21.345 44.352-21.345s6.554 29.275-7.866 48.585z" fill="#E6E6E6"/><path d="M625.544 1049.59c9.515 12.74 29.267 14.09 29.267 14.09s4.324-19.32-5.191-32.07c-9.515-12.74-29.266-14.08-29.266-14.08s-4.325 19.32 5.19 32.06z" fill="#E6E6E6"/><path d="M690.056 1064.84H432.318v-2.11h258.12l-.382 2.11z" fill="#3F3D56"/><path d="M680.34 433.393H102v321.3h578.34v-321.3z" fill="#E6E6E6"/><path d="M133.583 723.109h515.175V464.976H133.583v258.133z" fill="#fff"/><path d="M679.495 414.791H102.846v28.748h576.649v-28.748z" fill="#990003"/><path d="M267.657 555.994H162.812V630.4h104.845v-74.406zm351.871 0h-289.17v8.455h289.17v-8.455zm0 33.821h-289.17v8.455h289.17v-8.455zm0 33.821h-289.17v8.455h289.17v-8.455z" fill="#E6E6E6"/><path d="M525.036 760.965l-2.82 16.219s-13.398 37.372-9.872 72.628c3.525 35.257 6.346 59.937 6.346 59.937s-10.577 88.846-6.346 120.581c0 0 11.282 15.51 26.09-.71l11.282-117.051 11.987-83.206 10.577 93.078 7.051 105.769s9.872 10.58 24.68 1.41l-1.41-119.871s12.692-101.54 10.577-110.001c-2.116-8.462-16.218-41.603-16.218-41.603l-71.924 2.82z" fill="#2F2E41"/><path d="M517.985 1031.03l.705 14.81s-10.747 16.76 2.65 16.76c.134 0-.132 0 0 0 9.689-.03 18.446 4.33 17.301-5.29l-1.618-13.59-2.82-14.8-16.218 2.11zm81.711 0l-.705 14.81s10.747 16.76-2.651 16.76c-.134 0 .133 0 0 0-9.689-.03-18.446 4.33-17.3-5.29l1.617-13.59 2.821-14.8 16.218 2.11z" fill="#2F2E41"/><path d="M557.825 638.625c12.462 0 22.564-10.102 22.564-22.564s-10.102-22.564-22.564-22.564-22.564 10.102-22.564 22.564 10.102 22.564 22.564 22.564z" fill="#9F616A"/><path d="M547.953 630.869s2.82 32.436-5.641 37.372c-8.462 4.936 35.256 2.82 35.256 2.82s-9.872-38.077-9.166-42.308l-20.449 2.116z" fill="#FFB8B8"/><path d="M590.614 651.67s-28.205-12.693-67.693 0c0 0-17.276 4.583-19.391 10.224-2.115 5.641 23.622 70.161 20.801 81.443a61.257 61.257 0 00-1.41 21.154s62.052-8.461 76.86-2.115c0 0-5.641-18.334-4.231-31.026 1.41-12.692 13.397-71.924 13.397-71.924s-6.346-6.346-18.333-7.756z" fill="#F0510A"/><path d="M615.294 819.492s-10.577 32.436.705 33.141c11.282.705 6.346-24.68 6.346-24.68l-1.41-8.461h-5.641z" fill="#9F616A"/><path d="M594.139 663.657l14.808-4.23s8.461 6.346 8.461 14.807c0 8.462-1.41 62.757-1.41 62.757l10.577 81.09-16.218 5.642-19.039-87.437 2.821-72.629z" fill="#F0510A"/><path d="M499.652 819.492s10.577 32.436-.705 33.141c-11.283.705-6.347-24.68-6.347-24.68l1.411-8.461h5.641z" fill="#9F616A"/><path d="M520.805 663.657l-14.808-4.23s-8.461 6.346-8.461 14.807c0 8.462 1.41 62.757 1.41 62.757l-10.577 81.09 16.218 5.642 19.039-87.437-2.821-72.629z" fill="#F0510A"/><path d="M567.696 582.919s-19.743-3.525-23.974 22.565c-4.231 26.09-2.116 35.961-9.167 38.782-7.051 2.82-9.167 6.346-7.756 11.987 1.41 5.641 6.346 7.757-.705 18.334-7.052 10.577 15.512 7.756 33.846 16.218 18.333 8.461 60.641-3.526 55-13.398-5.641-9.872-14.807-5.641-10.577-16.923 4.231-11.282 5.641-13.398 0-20.449-5.641-7.051 2.821-50.769-36.667-57.116z" fill="#2F2E41"/></g><defs><linearGradient id="paint0_linear" x1="176" y1="134.791" x2="176" y2="1064.79" gradientUnits="userSpaceOnUse"><stop stop-color="#F0D5A4" stop-opacity="0"/><stop offset="1" stop-color="#F0D5A4"/></linearGradient><clipPath id="clip0"><path fill="#fff" transform="translate(102 414.791)" d="M0 0h606.352v650.047H0z"/></clipPath></defs></svg>